<?xml version="1.0" standalone="no"?>
<!DOCTYPE svg PUBLIC "-//W3C//DTD SVG 20010904//EN"
 "http://www.w3.org/TR/2001/REC-SVG-20010904/DTD/svg10.dtd">
<svg version="1.0" xmlns="http://www.w3.org/2000/svg"
 width="809.000000pt" height="809.000000pt" viewBox="0 0 809.000000 809.000000"
 preserveAspectRatio="xMidYMid meet">

<g transform="translate(0.000000,809.000000) scale(0.100000,-0.100000)"
fill="white" stroke="none">
<path d="M3900 8083 c-1104 -40 -2155 -536 -2880 -1360 -581 -661 -910 -1421
-1001 -2318 -16 -156 -16 -565 0 -725 51 -507 180 -968 394 -1405 97 -197 149
-288 273 -475 522 -789 1335 -1383 2246 -1640 376 -106 709 -152 1113 -151
386 0 674 35 1008 123 l117 31 0 32 0 32 -150 -39 c-1076 -274 -2220 -83
-3155 527 -359 234 -701 551 -975 905 -858 1105 -1064 2611 -535 3915 363 897
1045 1635 1911 2068 413 207 819 329 1304 393 173 23 696 28 875 8 713 -78
1345 -318 1925 -732 314 -224 630 -536 865 -852 418 -563 669 -1191 762 -1905
26 -200 26 -729 0 -930 -101 -778 -381 -1444 -854 -2035 -126 -158 -402 -438
-556 -566 -379 -313 -804 -551 -1252 -703 -82 -28 -137 -51 -122 -51 31 0 48
-27 26 -41 -19 -12 -4 -12 19 0 9 5 49 19 87 31 184 59 507 202 690 307 909
522 1576 1354 1875 2343 117 386 171 756 171 1175 0 229 -11 375 -42 590 -219
1516 -1297 2787 -2764 3258 -424 136 -927 206 -1375 190z"/>
<path d="M4238 7880 c-71 -12 -129 -49 -165 -103 -41 -61 -53 -104 -53 -187 1
-106 41 -170 140 -222 39 -20 59 -23 150 -23 159 1 180 18 180 149 0 73 8 93
38 101 43 11 8 22 -90 28 -84 6 -117 -4 -63 -17 14 -4 29 -15 33 -26 10 -27
-2 -178 -15 -191 -17 -17 -94 -22 -141 -10 -97 27 -149 115 -140 241 10 134
72 216 173 227 82 10 147 -32 182 -115 7 -18 18 -30 23 -27 10 6 14 165 4 165
-3 0 -14 -5 -25 -11 -15 -7 -32 -6 -67 5 -66 21 -110 26 -164 16z"/>
<path d="M3690 7873 c-77 -11 -90 -15 -90 -23 0 -6 11 -10 25 -10 14 0 30 -9
39 -22 13 -21 62 -305 54 -313 -4 -4 -53 42 -235 218 -79 76 -118 107 -130
104 -10 -3 -39 -8 -65 -12 -46 -6 -68 -25 -29 -25 10 0 28 -8 40 -17 18 -15
25 -46 47 -196 29 -207 29 -247 -4 -263 -44 -22 -36 -27 28 -20 90 10 120 17
120 27 0 5 -11 9 -25 9 -14 0 -30 9 -39 23 -13 20 -68 357 -58 357 6 0 97 -83
256 -234 81 -76 149 -137 152 -134 2 3 -10 106 -27 230 -18 124 -29 237 -25
252 4 15 17 31 31 36 14 5 25 12 25 15 0 5 -49 5 -90 -2z"/>
<path d="M4800 7805 c0 -3 11 -10 25 -15 14 -5 28 -16 31 -24 3 -8 -15 -90
-41 -182 -66 -233 -58 -279 56 -337 70 -35 142 -44 190 -24 61 25 87 73 140
249 26 88 52 165 58 171 5 5 24 10 41 9 16 0 30 4 30 9 0 5 -3 9 -7 9 -5 0
-43 11 -85 24 -44 14 -80 20 -83 15 -4 -5 5 -14 19 -20 33 -15 36 -40 14 -124
-44 -167 -78 -261 -102 -284 -51 -48 -162 -37 -211 20 -35 43 -32 77 23 269
l47 165 38 3 c20 2 37 7 37 11 0 5 -43 20 -95 35 -94 26 -125 31 -125 21z"/>
<path d="M2729 7618 c-1 -24 -2 -54 -4 -68 -1 -14 -5 -105 -9 -202 -8 -188
-17 -246 -37 -259 -8 -4 -10 -11 -7 -14 7 -7 59 8 118 34 l35 15 -35 5 -35 6
-3 71 -3 71 88 31 c49 18 94 32 100 32 14 0 93 -89 93 -105 0 -7 -10 -20 -22
-28 -18 -13 -20 -16 -6 -16 25 -1 178 59 178 70 0 6 -6 9 -12 8 -7 -1 -20 -1
-29 0 -9 0 -98 88 -199 194 -101 105 -190 193 -197 195 -9 2 -13 -10 -14 -40z
m179 -238 c3 -7 -129 -60 -149 -60 -10 0 -12 56 -2 153 l6 68 71 -77 c39 -42
72 -80 74 -84z"/>
<path d="M5567 7548 c39 -44 37 -52 -59 -231 -51 -94 -101 -180 -111 -190 -13
-13 -26 -16 -52 -11 -19 3 -35 4 -35 1 0 -8 145 -87 159 -87 6 0 1 14 -11 31
l-23 31 85 164 c47 90 87 164 90 164 3 0 27 -122 55 -270 27 -149 52 -270 56
-270 4 0 53 87 109 193 127 240 127 241 174 239 20 -1 36 2 36 6 0 9 -144 82
-161 82 -6 0 1 -14 15 -30 20 -25 23 -35 16 -54 -12 -33 -65 -137 -108 -215
l-36 -65 -38 210 c-20 115 -40 223 -43 239 -4 25 -15 36 -60 58 -67 33 -85 34
-58 5z"/>
<path d="M2180 7394 c-52 -30 -96 -59 -98 -64 -5 -13 4 -13 29 1 11 5 28 7 39
4 19 -6 230 -364 230 -391 0 -7 -12 -25 -27 -39 -34 -30 -17 -33 34 -4 69 38
153 90 153 95 0 2 -17 1 -38 -2 -37 -6 -40 -5 -69 42 -47 75 -171 297 -183
328 -8 23 -6 31 15 52 50 50 33 46 -85 -22z"/>
<path d="M3770 7219 c-463 -40 -948 -198 -1335 -434 -743 -452 -1260 -1188
-1429 -2035 -73 -363 -76 -800 -10 -1160 86 -473 292 -938 581 -1315 103 -135
113 -147 287 -320 308 -307 629 -518 1031 -678 1077 -430 2333 -206 3189 569
588 531 938 1223 1016 2008 14 140 14 430 0 576 -92 946 -592 1775 -1385 2295
-401 263 -815 415 -1310 480 -145 19 -491 27 -635 14z m563 -44 c714 -76 1346
-375 1847 -875 497 -496 800 -1128 881 -1840 15 -133 15 -482 0 -620 -94 -836
-490 -1562 -1132 -2076 -423 -338 -916 -552 -1464 -634 -202 -31 -540 -38
-744 -16 -601 66 -1141 289 -1611 665 -106 85 -309 283 -392 381 -562 667
-816 1505 -712 2351 134 1097 852 2038 1873 2454 278 113 576 186 876 214 147
14 430 12 578 -4z"/>
<path d="M4660 7024 c-43 -31 -50 -42 -50 -76 0 -22 7 -31 35 -42 94 -40 165
-114 165 -172 0 -38 -53 -191 -97 -281 -39 -80 -171 -223 -323 -349 -120 -100
-183 -139 -365 -230 l-160 -79 -350 -5 c-293 -4 -355 -8 -380 -21 -197 -104
-251 -133 -255 -138 -19 -25 -68 -51 -95 -51 -18 0 -38 -6 -44 -14 -16 -19 -4
-63 22 -81 37 -26 71 -17 153 37 120 78 187 100 319 103 73 2 120 -1 140 -9
l30 -13 -37 -18 c-62 -30 -63 -75 -2 -75 19 0 34 -4 34 -9 0 -7 -76 -34 -165
-58 -11 -3 -38 -15 -60 -26 -65 -33 -168 -67 -201 -67 -37 0 -90 -17 -124 -40
-59 -40 -141 -78 -201 -95 -102 -27 -109 -28 -109 -16 0 6 5 11 10 11 6 0 10
14 10 30 0 39 -21 39 -81 2 -24 -15 -60 -35 -79 -44 -247 -113 -372 -148 -523
-148 -57 0 -106 3 -110 6 -3 4 0 13 8 21 8 8 15 27 15 42 0 23 -6 30 -37 40
-31 10 -44 10 -73 -2 -19 -8 -61 -18 -92 -22 -70 -8 -77 -22 -58 -122 18 -95
43 -133 109 -167 48 -26 165 -21 253 10 40 14 109 36 153 50 114 36 289 102
365 137 152 70 192 84 401 138 56 14 95 11 120 -11 l24 -20 -24 -20 c-13 -11
-32 -20 -42 -20 -10 0 -28 -4 -41 -9 -13 -5 -43 -15 -68 -21 -108 -30 -281
-94 -350 -129 -164 -84 -187 -99 -275 -187 -110 -108 -124 -138 -105 -223 7
-31 19 -63 25 -71 7 -8 15 -23 18 -32 5 -15 15 -17 54 -12 78 9 97 21 171 109
69 81 171 165 280 231 29 18 64 43 78 57 26 26 72 36 199 43 94 5 105 -3 84
-58 -58 -151 -76 -181 -118 -201 -18 -8 -30 -26 -39 -57 -20 -69 -34 -94 -147
-258 -125 -184 -199 -325 -253 -487 -67 -201 -79 -388 -35 -550 35 -125 76
-196 167 -285 32 -32 56 -64 56 -76 0 -13 -42 -61 -117 -135 -214 -208 -341
-340 -370 -382 -15 -23 -31 -44 -34 -47 -3 -3 -23 -41 -45 -84 -30 -62 -39
-93 -42 -146 -4 -60 -2 -70 19 -89 12 -11 31 -21 41 -21 9 0 32 -9 50 -20 30
-18 51 -20 263 -20 213 0 370 12 525 39 30 5 71 13 90 16 71 12 146 27 180 35
30 8 145 36 340 82 127 30 179 48 300 107 106 52 205 131 245 195 27 45 30 57
30 130 -1 80 -15 124 -57 177 -29 36 -150 85 -268 108 -61 13 -217 18 -226 8
-15 -14 9 -39 56 -59 27 -11 50 -24 50 -29 0 -22 -21 -20 -205 11 -180 31
-221 19 -77 -23 199 -58 372 -133 398 -173 33 -50 -24 -137 -154 -232 -122
-91 -299 -162 -500 -202 -28 -5 -73 -14 -100 -19 -26 -6 -87 -15 -137 -21 -49
-6 -120 -16 -157 -21 -37 -5 -157 -9 -267 -9 l-200 0 -20 29 c-30 42 -29 127
3 190 26 50 149 192 262 303 70 67 225 188 273 212 49 25 139 46 200 46 54 0
62 3 77 25 15 23 15 27 1 43 -25 27 -31 66 -13 81 9 8 16 21 16 30 0 30 62
116 215 297 160 190 289 325 474 494 132 121 215 206 263 270 41 54 99 74 191
66 97 -9 150 -47 228 -163 27 -40 49 -74 49 -77 0 -3 11 -29 24 -58 42 -95 79
-215 101 -326 10 -53 10 -70 -2 -105 -12 -34 -14 -75 -8 -207 5 -134 2 -197
-14 -338 -29 -240 -25 -362 14 -462 7 -19 16 -55 20 -80 9 -70 141 -261 245
-357 40 -38 80 -44 80 -13 0 24 -2 23 41 9 19 -7 50 -28 69 -47 38 -37 57 -47
138 -68 80 -21 129 -17 217 17 163 63 225 105 308 207 34 42 80 95 103 117 41
41 64 81 64 115 0 10 13 28 28 39 20 14 32 35 41 73 8 29 17 58 21 63 8 10 15
55 26 160 3 28 14 67 25 87 18 34 20 50 15 170 -3 73 -6 153 -7 178 -1 25 3
108 10 185 6 77 16 235 21 350 6 116 15 260 21 320 12 114 14 290 8 530 -1 77
1 163 5 191 9 55 -3 94 -29 94 -8 0 -17 -12 -21 -27 -3 -16 -10 -40 -16 -54
-10 -28 -5 -411 7 -484 5 -29 1 -53 -14 -88 -17 -39 -18 -51 -9 -67 9 -14 10
-27 2 -47 -6 -16 -11 -80 -12 -143 -1 -63 -6 -160 -12 -215 -5 -55 -14 -161
-20 -235 -6 -74 -15 -182 -20 -240 -6 -58 -10 -127 -10 -155 0 -27 -7 -70 -15
-93 -9 -24 -18 -71 -21 -105 -4 -34 -17 -93 -29 -132 -113 -343 -273 -567
-454 -635 -36 -13 -66 -31 -73 -44 -19 -36 -41 -45 -103 -46 -89 0 -166 30
-265 103 -106 78 -187 157 -234 226 -43 64 -48 78 -57 157 -5 48 -12 91 -15
96 -13 20 -27 200 -28 343 -1 138 5 202 34 385 19 117 30 213 45 364 17 181 4
310 -38 391 -14 28 -28 58 -31 68 -11 33 -31 12 -34 -36 -2 -26 -7 -47 -11
-47 -12 0 -98 140 -127 206 -14 33 -30 67 -35 77 -11 21 -14 110 -4 127 3 5
25 20 48 31 54 27 97 68 97 91 0 10 -3 18 -6 18 -3 0 -33 -20 -66 -45 -91 -68
-103 -62 -100 55 3 119 20 188 73 295 58 119 124 206 176 231 21 10 64 20 96
22 l57 4 0 -30 c0 -40 25 -61 47 -39 12 11 16 35 16 87 0 87 -23 120 -84 120
-36 0 -52 -5 -128 -38 -75 -32 -178 -154 -238 -282 -34 -71 -73 -195 -73 -229
0 -35 -51 -130 -98 -182 -24 -26 -78 -73 -120 -103 -85 -59 -222 -195 -302
-296 -28 -36 -189 -204 -358 -375 -169 -170 -392 -398 -495 -505 l-188 -195
-47 51 c-92 99 -141 238 -149 422 -8 165 18 267 119 475 21 43 38 82 38 87 0
6 5 10 10 10 6 0 10 5 10 10 0 18 98 157 163 232 34 39 93 110 132 157 38 47
111 130 162 183 51 53 94 104 94 112 1 9 3 21 4 26 1 6 3 16 4 24 0 8 15 17
31 21 17 4 30 11 30 16 0 14 161 172 210 206 57 39 115 64 210 93 41 12 86 26
100 30 14 4 45 13 70 20 25 7 54 16 65 20 11 4 40 13 65 20 25 7 59 17 75 21
17 5 49 14 72 19 26 6 51 22 67 40 38 46 17 79 -28 45 -11 -8 -34 -15 -52 -15
-25 0 -38 -7 -54 -30 -12 -16 -30 -30 -40 -30 -10 0 -34 -9 -52 -19 -37 -21
-103 -35 -119 -26 -18 12 10 33 69 50 118 36 182 72 182 106 0 24 64 72 151
115 41 19 89 43 107 52 40 21 138 109 130 118 -8 7 -126 -34 -158 -57 -14 -9
-108 -58 -210 -108 -102 -50 -202 -100 -222 -113 -34 -20 -41 -20 -77 -8 -33
11 -43 11 -56 0 -8 -7 -18 -10 -22 -7 -3 4 5 15 18 26 40 32 127 76 136 68 4
-5 1 -12 -7 -17 -24 -15 -2 -24 24 -10 35 18 100 80 120 113 9 15 29 32 44 38
15 6 38 21 52 33 14 13 61 47 105 76 125 84 234 169 303 237 60 61 62 65 62
115 0 49 2 53 53 100 48 45 189 138 208 138 11 0 22 42 17 71 -4 29 -28 37
-35 11 -3 -11 -10 -23 -17 -25 -6 -3 -72 -53 -146 -112 -74 -59 -141 -110
-149 -113 -33 -13 40 89 135 188 103 106 136 154 155 223 5 20 15 37 20 37 11
0 10 -12 -8 -103 -8 -39 14 -27 56 29 24 34 30 49 22 57 -6 6 -11 27 -11 46 0
32 7 41 55 78 30 24 55 46 55 51 0 4 -9 13 -20 19 -20 13 -50 8 -50 -8 0 -5
-4 -9 -10 -9 -17 0 -11 23 20 84 35 67 38 106 5 69 -20 -23 -55 -31 -55 -13 0
6 -18 30 -40 54 -31 34 -50 45 -83 50 -57 8 -138 23 -162 29 -12 4 -34 -4 -55
-19z m-140 -954 c-14 -10 -27 -17 -29 -14 -6 5 31 33 44 33 6 1 -1 -8 -15 -19z"/>
<path d="M6020 5617 c-37 -29 -62 -81 -75 -156 -34 -194 -109 -311 -299 -470
-140 -117 -114 -128 124 -51 85 28 164 60 176 71 12 12 37 22 56 22 31 2 33 0
36 -37 2 -21 -1 -43 -7 -49 -29 -29 -1 -107 33 -94 19 7 27 52 35 197 5 109
10 131 32 170 33 59 41 90 30 128 -6 20 -6 42 1 60 10 25 7 35 -26 85 -42 66
-41 65 -20 89 16 16 15 18 -2 24 -11 3 -27 10 -36 15 -23 12 -40 11 -58 -4z"/>
<path d="M4708 4823 c-69 -105 -120 -201 -109 -207 10 -7 59 46 99 107 15 23
29 44 32 47 14 12 50 102 45 110 -12 19 -22 9 -67 -57z"/>
<path d="M3060 2911 c-34 -23 34 -52 165 -70 191 -27 227 -29 233 -13 10 28
-45 59 -127 71 -124 17 -254 23 -271 12z"/>
<path d="M3380 1590 c-36 -4 -55 -7 -42 -8 22 -2 22 -4 22 -131 0 -126 -1
-130 -22 -134 -13 -2 20 -4 72 -5 52 0 86 3 74 6 -20 7 -21 14 -22 142 0 74
-4 135 -9 135 -4 1 -37 -2 -73 -5z"/>
<path d="M3733 1584 c-60 -30 -65 -113 -8 -150 18 -12 36 -15 69 -10 l43 7 -3
-33 c-7 -62 -13 -76 -39 -80 -29 -6 -29 -5 -13 21 23 37 -9 69 -57 57 -20 -5
-25 -13 -25 -37 0 -25 6 -32 37 -46 75 -31 159 -2 196 68 22 42 17 121 -11
159 -41 55 -126 75 -189 44z m97 -69 c0 -49 -3 -65 -14 -65 -21 0 -25 27 -17
118 1 6 8 12 16 12 12 0 15 -14 15 -65z"/>
<path d="M4175 1504 c-44 -53 -80 -101 -80 -107 0 -8 19 -12 52 -12 57 0 62
-2 68 -34 3 -16 -2 -25 -18 -31 -15 -6 9 -8 73 -8 52 0 85 3 73 5 -19 4 -23
11 -23 39 0 19 4 33 9 29 5 -3 12 -1 16 5 3 5 -1 10 -9 10 -13 0 -16 16 -16
100 l0 100 -32 -1 c-29 0 -43 -12 -113 -95z m41 -41 l-1 -58 -47 -3 c-27 -2
-48 0 -48 3 0 6 90 115 94 115 2 0 2 -26 2 -57z"/>
<path d="M4595 1590 c-33 -4 -50 -7 -37 -8 22 -2 22 -4 22 -131 0 -126 -1
-130 -22 -134 -13 -2 22 -4 77 -4 55 0 90 2 78 4 -23 4 -23 7 -23 144 0 126
-2 139 -17 137 -10 -1 -45 -4 -78 -8z"/>
<path d="M1805 7149 c-93 -70 -113 -96 -51 -68 34 16 37 13 183 -180 122 -163
147 -211 101 -196 -13 4 -36 8 -53 9 -25 1 -31 -3 -33 -23 -4 -28 20 -51 54
-51 29 0 91 58 100 94 12 48 -13 97 -121 241 -58 77 -108 150 -111 163 -4 14
0 29 10 41 17 19 21 31 9 30 -5 0 -44 -27 -88 -60z"/>
<path d="M6220 7176 c0 -3 9 -15 20 -26 11 -11 20 -27 20 -35 0 -16 -202 -289
-252 -340 -28 -30 -29 -30 -58 -13 -16 9 -32 13 -35 9 -2 -5 38 -41 90 -80 54
-41 95 -65 95 -57 0 7 -7 19 -15 26 -8 7 -15 22 -15 34 0 22 231 330 262 350
13 8 26 7 48 -1 49 -18 35 0 -50 66 -77 60 -110 80 -110 67z"/>
<path d="M6595 6843 c-1 -35 -16 -84 -58 -183 -123 -287 -140 -330 -134 -336
3 -4 115 37 247 91 196 80 247 96 275 92 19 -3 35 -2 35 1 0 4 -25 32 -55 62
l-54 54 6 -36 c5 -34 3 -37 -34 -57 -52 -26 -295 -122 -299 -118 -7 7 140 339
153 344 8 3 22 -2 32 -11 11 -10 21 -13 24 -9 6 9 -119 153 -132 153 -3 0 -6
-21 -6 -47z"/>
<path d="M1430 6835 c0 -19 -13 -32 -52 -58 -64 -41 -89 -68 -120 -127 -32
-63 -32 -167 0 -230 49 -94 152 -170 233 -170 123 0 249 96 299 229 l18 46
-75 77 c-67 69 -73 79 -63 98 6 12 9 25 5 28 -7 7 -135 -127 -135 -140 0 -12
10 -9 26 7 24 24 37 19 108 -46 76 -70 80 -87 37 -146 -35 -48 -101 -83 -157
-83 -84 0 -201 88 -245 183 -36 80 -19 159 47 216 41 37 90 47 150 32 26 -7
49 -9 53 -5 6 6 -108 113 -121 114 -5 0 -8 -11 -8 -25z"/>
<path d="M923 6241 c-46 -74 -56 -106 -25 -78 32 29 69 20 180 -48 59 -35 116
-71 127 -79 20 -14 20 -14 -5 -20 -14 -3 -110 -15 -215 -26 -104 -11 -200 -23
-212 -25 -13 -3 -36 -28 -57 -62 -36 -58 -40 -78 -9 -51 43 38 56 34 220 -68
202 -124 206 -128 199 -177 -9 -52 4 -42 58 48 43 71 50 108 12 63 -12 -14
-26 -19 -44 -16 -28 4 -317 177 -309 184 2 3 122 19 265 37 237 30 284 39 271
51 -2 2 -87 55 -189 117 -101 62 -193 122 -203 132 -14 14 -18 28 -14 53 3 19
3 34 -1 34 -4 0 -26 -31 -49 -69z"/>
<path d="M7104 6268 l1 -42 -170 -108 c-93 -59 -180 -111 -193 -114 -15 -4
-30 0 -42 11 -45 41 -25 -2 76 -161 59 -93 110 -173 114 -177 10 -11 130 25
130 40 0 7 -15 12 -40 11 -21 0 -54 8 -72 19 -36 20 -118 134 -118 163 0 11
24 33 63 57 34 22 74 47 88 56 l26 18 42 -69 c47 -77 50 -97 20 -128 -39 -42
-1 -34 75 16 42 27 76 52 76 56 0 3 -18 3 -39 -1 -36 -6 -41 -4 -65 27 -15 18
-38 52 -52 75 l-24 42 72 47 c40 26 79 47 87 48 17 1 111 -149 111 -178 0 -11
-10 -30 -22 -43 -12 -13 -18 -26 -14 -30 9 -9 76 28 89 49 7 10 -23 64 -99
186 -60 94 -112 172 -115 172 -3 0 -5 -19 -5 -42z"/>
<path d="M7459 5703 c-1 -5 0 -20 1 -35 1 -19 -5 -30 -22 -39 -51 -27 -373
-149 -394 -149 -13 0 -30 10 -38 22 -31 44 -27 6 9 -84 39 -100 62 -135 52
-83 -3 17 -2 36 2 43 10 17 172 84 188 78 24 -10 14 -36 -64 -164 l-76 -126
19 -55 c23 -63 41 -76 42 -31 1 27 29 83 115 228 l19 33 44 -41 c49 -45 91
-52 150 -24 81 39 84 131 9 317 -44 110 -53 128 -56 110z m52 -185 c20 -48 18
-112 -5 -137 -11 -12 -37 -26 -58 -33 -55 -16 -97 7 -133 74 -15 27 -25 51
-22 54 8 8 172 72 188 73 10 1 22 -13 30 -31z"/>
<path d="M668 5539 c-110 -17 -192 -107 -204 -226 -9 -82 9 -136 62 -193 75
-80 202 -118 302 -90 55 14 123 76 152 138 27 56 30 174 6 219 -52 100 -198
170 -318 152z m167 -123 c90 -45 126 -86 132 -154 9 -101 -69 -168 -183 -158
-111 9 -237 75 -268 140 -23 49 -21 117 6 151 42 54 75 67 160 62 64 -3 90
-10 153 -41z"/>
<path d="M7555 4931 c-40 -24 -57 -50 -89 -140 -45 -125 -85 -163 -152 -141
-34 11 -64 58 -64 99 0 39 27 87 70 124 24 20 41 40 37 43 -7 7 -137 -34 -152
-48 -6 -6 -5 -12 5 -18 11 -7 15 -28 15 -82 0 -128 51 -193 151 -193 53 0 57
2 99 46 33 35 48 63 64 117 21 70 55 123 92 142 28 16 68 1 84 -31 31 -59 13
-114 -57 -173 -32 -26 -38 -36 -25 -36 24 0 157 40 157 47 0 3 -8 11 -17 18
-13 10 -16 26 -14 72 3 76 -17 126 -61 153 -41 25 -103 26 -143 1z"/>
<path d="M720 4811 c0 -5 11 -16 25 -25 44 -29 58 -71 51 -156 -9 -109 -13
-120 -48 -120 -45 0 -369 50 -400 62 -22 8 -28 17 -28 39 0 15 -4 31 -10 34
-5 3 -10 3 -10 -2 0 -4 -7 -51 -15 -103 -8 -52 -15 -98 -15 -102 0 -16 16 -7
25 15 14 32 43 32 238 2 223 -34 237 -38 237 -76 0 -34 17 -39 24 -6 9 40 56
362 56 380 0 11 -19 26 -56 42 -61 27 -74 30 -74 16z"/>
<path d="M7796 4357 c-4 -19 -13 -38 -21 -41 -7 -2 -109 -10 -224 -17 -223
-12 -241 -10 -241 32 0 10 -4 21 -10 24 -12 7 -13 -71 -4 -164 7 -62 24 -85
24 -32 0 17 6 33 13 38 19 12 418 32 444 22 15 -5 26 -20 29 -39 13 -61 19
-27 16 83 -4 116 -15 154 -26 94z"/>
<path d="M260 4085 c0 -70 4 -115 10 -115 6 0 10 10 10 23 0 12 4 27 8 34 10
16 220 25 357 16 l110 -8 10 -32 c17 -60 25 -34 25 82 0 70 -4 115 -10 115 -5
0 -10 -11 -10 -24 0 -44 -15 -47 -246 -46 -229 0 -244 3 -244 46 0 13 -4 24
-10 24 -6 0 -10 -45 -10 -115z"/>
<path d="M7690 3931 c0 -5 9 -12 19 -16 11 -3 31 -15 45 -26 23 -18 26 -28 26
-80 0 -71 25 -67 -250 -39 -208 21 -220 25 -220 78 0 13 -4 21 -9 18 -5 -3
-12 -45 -16 -93 -3 -49 -9 -98 -12 -110 -8 -34 11 -28 24 7 11 29 14 30 70 29
32 0 135 -8 228 -18 l170 -17 -2 -39 c-5 -69 -21 -94 -69 -107 -24 -7 -44 -15
-44 -19 0 -8 128 -24 135 -18 4 5 46 441 43 444 -11 8 -138 14 -138 6z"/>
<path d="M660 3792 c0 -6 9 -13 19 -17 30 -9 70 -44 86 -75 16 -31 35 -164 25
-179 -7 -13 -201 -44 -211 -34 -5 5 -11 45 -15 90 l-7 82 32 18 c33 19 40 33
16 33 -36 0 -165 -23 -165 -30 0 -4 15 -11 33 -16 36 -11 50 -40 61 -135 l7
-56 -96 -13 c-53 -6 -98 -10 -101 -8 -2 2 -9 48 -16 101 -12 96 -12 97 12 122
13 14 29 25 37 25 7 0 13 5 13 11 0 8 -17 10 -57 5 -31 -4 -58 -8 -59 -9 -1
-1 11 -90 27 -197 16 -107 29 -201 29 -207 0 -28 20 -11 20 17 0 18 7 33 18
39 23 12 384 63 419 59 17 -2 32 -12 38 -25 5 -13 14 -23 20 -23 7 0 0 77 -19
208 -16 114 -30 208 -31 210 -1 1 -32 5 -69 9 -44 4 -66 2 -66 -5z"/>
<path d="M7160 3125 c-33 -116 -35 -154 -5 -96 19 38 42 40 148 8 76 -23 77
-23 163 -122 87 -102 120 -156 110 -182 -4 -9 -1 -13 6 -11 10 4 57 135 58
161 0 16 -18 5 -28 -18 -7 -15 -17 -23 -26 -19 -16 6 -156 161 -156 172 0 10
212 70 228 64 6 -2 12 -18 12 -35 0 -47 14 -22 43 79 33 113 34 123 1 91 -18
-18 -71 -41 -170 -74 l-143 -47 -78 23 c-110 32 -127 44 -118 87 3 19 2 34 -3
34 -4 0 -23 -52 -42 -115z"/>
<path d="M870 3194 c0 -42 9 -37 -243 -125 -94 -32 -179 -57 -188 -54 -10 3
-21 15 -24 26 -6 19 -25 27 -25 10 0 -10 44 -135 63 -181 10 -24 11 -24 16 15
6 39 6 40 91 72 47 17 90 32 95 32 6 1 27 -47 47 -106 29 -81 35 -109 25 -115
-6 -4 -50 -20 -96 -35 l-83 -28 -24 30 c-13 16 -25 27 -28 25 -7 -8 66 -210
76 -210 5 0 7 13 3 29 -5 24 -2 33 18 45 40 27 398 147 418 141 10 -3 21 -15
24 -26 6 -18 25 -27 25 -11 0 17 -68 196 -76 199 -5 2 -9 -14 -9 -34 l0 -37
-85 -32 c-47 -18 -92 -33 -100 -33 -10 -1 -26 30 -49 97 -19 53 -36 102 -38
109 -3 7 35 24 97 45 l102 33 22 -28 c12 -15 25 -27 28 -27 4 0 -9 47 -29 105
-20 58 -40 105 -45 105 -4 0 -8 -16 -8 -36z"/>
<path d="M6453 2114 c-3 -9 2 -67 12 -129 l18 -112 -48 -109 c-27 -60 -55
-119 -63 -131 -8 -13 -12 -30 -8 -38 8 -22 34 -18 41 6 4 12 22 41 39 64 18
23 54 81 82 130 66 118 117 175 155 175 34 0 48 -24 41 -71 -4 -24 -11 -31
-45 -40 -51 -13 -82 -45 -134 -134 -69 -118 -80 -145 -63 -155 8 -6 30 -10 48
-10 30 0 32 2 32 38 0 22 10 53 25 77 13 22 25 52 25 66 0 15 7 32 15 39 24
20 30 -13 11 -69 -9 -28 -16 -52 -16 -54 0 -3 14 -10 31 -16 30 -10 31 -12 16
-33 -9 -13 -27 -41 -40 -63 -13 -22 -43 -70 -65 -107 -23 -37 -42 -71 -42 -76
0 -7 42 -32 55 -32 2 0 18 28 34 63 17 34 52 88 77 120 l48 57 29 -27 c35 -34
67 -94 67 -127 0 -19 -12 -31 -55 -56 -85 -49 -70 -58 50 -28 50 12 125 55
125 71 0 20 -62 116 -112 173 -27 30 -48 58 -48 62 0 14 106 113 140 130 19 9
35 22 37 28 4 11 -67 54 -90 54 -8 0 -46 -34 -84 -75 -61 -67 -71 -74 -86 -62
-17 12 -17 15 2 57 11 25 21 55 21 66 0 13 13 31 33 44 47 34 101 110 87 124
-15 15 -152 20 -193 7 -19 -6 -52 -27 -74 -46 -22 -19 -43 -31 -47 -28 -8 9
-7 79 3 131 7 36 6 44 -10 52 -28 15 -69 12 -76 -6z"/>
<path d="M6332 1952 c-34 -68 -29 -82 28 -82 57 0 67 11 47 57 -9 21 -17 47
-19 57 -6 38 -27 26 -56 -32z"/>
<path d="M1556 1925 c-61 -79 -116 -233 -87 -243 26 -9 64 -49 57 -60 -11 -18
-19 -15 -67 23 -53 42 -62 43 -77 10 -17 -37 -15 -42 15 -57 29 -14 51 -43 40
-54 -3 -4 -32 13 -63 37 -113 89 -101 84 -118 51 l-15 -28 61 -45 c80 -58 222
-201 243 -245 9 -19 20 -34 24 -34 5 0 16 18 25 39 l15 40 -61 59 c-54 52 -60
62 -49 76 12 14 17 13 51 -14 43 -34 62 -37 80 -15 11 14 7 22 -25 55 -32 32
-37 42 -26 52 12 13 35 -7 81 -71 l15 -22 45 25 c62 33 144 56 202 56 l48 0 0
40 c0 64 -22 101 -104 175 -85 76 -242 185 -267 185 -9 0 -29 -16 -43 -35z
m135 -82 c34 -20 37 -38 9 -53 -16 -8 -30 -6 -65 9 -47 21 -53 29 -33 49 17
17 55 15 89 -5z m-117 -105 c6 -4 21 -5 33 -1 30 7 29 -8 -2 -37 -23 -22 -25
-22 -50 -6 -28 18 -31 36 -13 69 12 21 12 21 16 2 2 -11 9 -23 16 -27z m263
-20 c39 -38 40 -47 8 -71 l-25 -18 0 30 c0 33 -7 40 -44 43 -32 3 -33 11 -3
31 29 21 26 22 64 -15z m-85 -95 c20 -18 20 -18 -9 -30 -41 -18 -68 -16 -88 7
-42 46 48 68 97 23z"/>
<path d="M6240 1780 c0 -26 43 -70 68 -70 26 0 97 63 88 78 -4 8 -35 12 -82
12 -68 0 -74 -2 -74 -20z"/>
<path d="M1039 1624 c-3 -26 4 -80 10 -87 5 -5 36 1 69 12 34 12 73 21 87 21
71 0 -24 48 -112 57 -29 3 -53 2 -54 -3z"/>
<path d="M6334 1525 c-16 -39 -18 -83 -5 -104 10 -16 50 -9 87 16 31 20 30 37
-1 57 -14 10 -31 28 -37 42 -15 33 -26 30 -44 -11z"/>
<path d="M1249 1501 c-38 -38 -37 -53 8 -90 45 -37 63 -39 63 -7 0 39 -23 126
-32 126 -5 0 -23 -13 -39 -29z"/>
<path d="M1386 1385 c-14 -13 -26 -35 -26 -48 0 -31 36 -77 61 -77 16 0 19 7
19 44 0 53 -10 106 -20 106 -4 0 -19 -11 -34 -25z"/>
<path d="M1502 1205 c-6 -35 -12 -83 -12 -105 0 -38 2 -40 30 -40 34 0 80 38
80 65 0 17 -70 145 -80 145 -3 0 -11 -29 -18 -65z"/>
<path d="M5252 1260 c-37 -15 -36 -36 6 -118 22 -42 52 -112 67 -154 33 -92
34 -88 -71 -154 -41 -25 -74 -51 -74 -56 0 -13 69 -76 91 -83 10 -4 29 7 52
30 19 19 43 35 52 35 16 0 17 -10 13 -93 -3 -81 -8 -100 -34 -147 -20 -37 -47
-66 -80 -88 -27 -19 -50 -38 -52 -43 -6 -15 41 -10 105 12 61 20 61 20 84 82
12 34 32 100 43 147 l21 85 53 3 c71 4 170 -22 204 -55 25 -24 30 -25 94 -18
37 4 90 14 118 22 78 23 141 93 84 93 -12 0 -70 -5 -128 -12 -102 -11 -108
-10 -210 17 -58 15 -129 32 -157 38 -39 8 -53 16 -53 29 0 9 22 52 50 95 27
43 50 87 50 99 0 11 -11 31 -24 43 l-25 23 -57 -61 c-42 -45 -59 -59 -66 -49
-23 37 -88 221 -88 252 0 31 -3 36 -22 35 -13 0 -33 -4 -46 -9z"/>
<path d="M2805 1188 c-27 -81 -49 -125 -80 -168 -35 -48 -39 -50 -83 -50 -26
1 -67 5 -92 10 -25 4 -46 7 -47 6 -2 -1 -6 -24 -9 -49 l-7 -47 34 0 c48 0 80
-11 76 -24 -7 -21 -132 -115 -193 -145 -33 -17 -93 -38 -132 -48 l-73 -17 33
-18 c42 -22 93 -22 174 -1 55 15 64 20 64 40 0 13 13 32 33 46 35 28 168 90
175 83 9 -10 -10 -63 -32 -91 -22 -27 -30 -30 -80 -29 -66 0 -72 -17 -19 -51
29 -18 32 -25 33 -70 1 -81 51 -165 98 -165 7 0 59 -18 115 -39 147 -56 155
-57 163 -24 3 16 15 59 26 96 10 37 18 87 16 110 l-3 42 -26 -55 c-15 -30 -40
-68 -58 -84 l-31 -30 -67 13 c-87 16 -148 43 -164 72 -14 27 -16 96 -3 109 14
14 165 51 194 48 20 -2 25 2 27 22 2 14 -3 33 -11 43 -13 17 -16 17 -38 3 -13
-8 -42 -19 -65 -24 -53 -12 -56 -1 -13 53 17 21 30 40 30 42 0 2 -13 9 -30 14
-35 13 -38 24 -11 39 28 15 57 13 145 -10 43 -12 80 -20 81 -18 4 4 7 56 6 84
-1 19 -9 22 -73 27 -40 4 -83 10 -95 13 l-22 6 25 40 c14 22 34 59 43 82 10
23 26 47 35 55 24 20 20 39 -14 56 -35 18 -49 19 -55 3z"/>
<path d="M2915 1059 c-26 -50 -17 -71 48 -103 36 -18 62 -25 67 -20 14 14 -6
77 -30 99 -11 10 -20 26 -20 37 0 32 -47 23 -65 -13z"/>
<path d="M3860 844 c-18 -48 -12 -102 13 -119 29 -19 107 -29 126 -16 17 11 3
36 -63 113 -47 54 -62 59 -76 22z"/>
<path d="M4290 749 c-36 -11 -98 -22 -139 -26 l-73 -6 5 -55 c7 -67 15 -76 52
-62 42 16 50 1 49 -91 -1 -65 -5 -84 -20 -99 -18 -18 -144 -60 -178 -60 -9 0
-16 -5 -16 -11 0 -8 16 -46 25 -57 1 -1 22 5 46 14 122 44 289 55 414 29 38
-8 71 -15 72 -15 9 0 -1 32 -23 76 l-26 51 -41 -8 c-58 -11 -145 -11 -152 0
-10 17 14 183 30 207 9 13 33 35 55 49 32 20 40 31 40 55 0 26 -3 30 -27 29
-16 -1 -57 -10 -93 -20z"/>
<path d="M3793 594 c-4 -16 -8 -94 -8 -174 0 -157 10 -193 62 -221 19 -10 26
-10 42 5 39 36 110 243 111 324 0 33 -16 19 -31 -26 -18 -57 -68 -154 -91
-179 -28 -30 -56 -29 -70 3 -17 38 12 143 58 207 41 57 36 71 -28 82 -35 7
-38 5 -45 -21z"/>
<path d="M5190 200 c0 -5 7 -10 15 -10 8 0 15 5 15 10 0 6 -7 10 -15 10 -8 0
-15 -4 -15 -10z"/>
</g>
</svg>
